<svg width="213" height="47" viewBox="0 0 213 47" fill="none" xmlns="http://www.w3.org/2000/svg">
<path d="M72.6077 6.84H77.9837V8.92H72.6077V6.84ZM72.7997 13H70.2077V1.8H78.6717V3.88H72.7997V13ZM83.3433 13.128C82.426 13.128 81.61 12.936 80.8953 12.552C80.1913 12.168 79.6313 11.6453 79.2153 10.984C78.81 10.312 78.6073 9.54933 78.6073 8.696C78.6073 7.832 78.81 7.06933 79.2153 6.408C79.6313 5.736 80.1913 5.21333 80.8953 4.84C81.61 4.456 82.426 4.264 83.3433 4.264C84.25 4.264 85.0606 4.456 85.7753 4.84C86.49 5.21333 87.05 5.73067 87.4553 6.392C87.8606 7.05333 88.0633 7.82133 88.0633 8.696C88.0633 9.54933 87.8606 10.312 87.4553 10.984C87.05 11.6453 86.49 12.168 85.7753 12.552C85.0606 12.936 84.25 13.128 83.3433 13.128ZM83.3433 11.08C83.7593 11.08 84.1326 10.984 84.4633 10.792C84.794 10.6 85.0553 10.328 85.2473 9.976C85.4393 9.61333 85.5353 9.18667 85.5353 8.696C85.5353 8.19467 85.4393 7.768 85.2473 7.416C85.0553 7.064 84.794 6.792 84.4633 6.6C84.1326 6.408 83.7593 6.312 83.3433 6.312C82.9273 6.312 82.554 6.408 82.2233 6.6C81.8926 6.792 81.626 7.064 81.4233 7.416C81.2313 7.768 81.1353 8.19467 81.1353 8.696C81.1353 9.18667 81.2313 9.61333 81.4233 9.976C81.626 10.328 81.8926 10.6 82.2233 10.792C82.554 10.984 82.9273 11.08 83.3433 11.08ZM94.1637 4.264C94.8464 4.264 95.4544 4.40267 95.9877 4.68C96.5317 4.94667 96.9584 5.36267 97.2677 5.928C97.577 6.48267 97.7317 7.19733 97.7317 8.072V13H95.2357V8.456C95.2357 7.76267 95.081 7.25067 94.7717 6.92C94.473 6.58933 94.0464 6.424 93.4917 6.424C93.097 6.424 92.7397 6.50933 92.4197 6.68C92.1104 6.84 91.865 7.09067 91.6837 7.432C91.513 7.77333 91.4277 8.21067 91.4277 8.744V13H88.9317V4.392H91.3157V6.776L90.8677 6.056C91.177 5.48 91.6197 5.03733 92.1957 4.728C92.7717 4.41867 93.4277 4.264 94.1637 4.264ZM102.953 13.128C102.142 13.128 101.411 12.9467 100.761 12.584C100.11 12.2107 99.5927 11.6933 99.2087 11.032C98.8353 10.3707 98.6487 9.592 98.6487 8.696C98.6487 7.78933 98.8353 7.00533 99.2087 6.344C99.5927 5.68267 100.11 5.17067 100.761 4.808C101.411 4.44533 102.142 4.264 102.953 4.264C103.678 4.264 104.313 4.424 104.857 4.744C105.401 5.064 105.822 5.54933 106.121 6.2C106.419 6.85067 106.569 7.68267 106.569 8.696C106.569 9.69867 106.425 10.5307 106.137 11.192C105.849 11.8427 105.433 12.328 104.889 12.648C104.355 12.968 103.71 13.128 102.953 13.128ZM103.385 11.08C103.79 11.08 104.158 10.984 104.489 10.792C104.819 10.6 105.081 10.328 105.273 9.976C105.475 9.61333 105.577 9.18667 105.577 8.696C105.577 8.19467 105.475 7.768 105.273 7.416C105.081 7.064 104.819 6.792 104.489 6.6C104.158 6.408 103.79 6.312 103.385 6.312C102.969 6.312 102.595 6.408 102.265 6.6C101.934 6.792 101.667 7.064 101.465 7.416C101.273 7.768 101.177 8.19467 101.177 8.696C101.177 9.18667 101.273 9.61333 101.465 9.976C101.667 10.328 101.934 10.6 102.265 10.792C102.595 10.984 102.969 11.08 103.385 11.08ZM105.641 13V11.24L105.689 8.68L105.529 6.136V1.128H108.025V13H105.641ZM114.815 13V11.32L114.655 10.952V7.944C114.655 7.41067 114.489 6.99467 114.159 6.696C113.839 6.39733 113.343 6.248 112.671 6.248C112.212 6.248 111.759 6.32267 111.311 6.472C110.873 6.61067 110.5 6.80267 110.191 7.048L109.295 5.304C109.764 4.97333 110.329 4.71733 110.991 4.536C111.652 4.35467 112.324 4.264 113.007 4.264C114.319 4.264 115.337 4.57333 116.063 5.192C116.788 5.81067 117.151 6.776 117.151 8.088V13H114.815ZM112.191 13.128C111.519 13.128 110.943 13.016 110.463 12.792C109.983 12.5573 109.615 12.2427 109.359 11.848C109.103 11.4533 108.975 11.0107 108.975 10.52C108.975 10.008 109.097 9.56 109.343 9.176C109.599 8.792 109.999 8.49333 110.543 8.28C111.087 8.056 111.796 7.944 112.671 7.944H114.959V9.4H112.943C112.356 9.4 111.951 9.496 111.727 9.688C111.513 9.88 111.407 10.12 111.407 10.408C111.407 10.728 111.529 10.984 111.775 11.176C112.031 11.3573 112.377 11.448 112.815 11.448C113.231 11.448 113.604 11.352 113.935 11.16C114.265 10.9573 114.505 10.664 114.655 10.28L115.039 11.432C114.857 11.9867 114.527 12.408 114.047 12.696C113.567 12.984 112.948 13.128 112.191 13.128ZM122.832 13.128C121.904 13.128 121.078 12.9413 120.352 12.568C119.627 12.184 119.056 11.656 118.64 10.984C118.235 10.312 118.032 9.54933 118.032 8.696C118.032 7.832 118.235 7.06933 118.64 6.408C119.056 5.736 119.627 5.21333 120.352 4.84C121.078 4.456 121.904 4.264 122.832 4.264C123.739 4.264 124.528 4.456 125.2 4.84C125.872 5.21333 126.368 5.752 126.688 6.456L124.752 7.496C124.528 7.09067 124.246 6.792 123.904 6.6C123.574 6.408 123.211 6.312 122.816 6.312C122.39 6.312 122.006 6.408 121.664 6.6C121.323 6.792 121.051 7.064 120.848 7.416C120.656 7.768 120.56 8.19467 120.56 8.696C120.56 9.19733 120.656 9.624 120.848 9.976C121.051 10.328 121.323 10.6 121.664 10.792C122.006 10.984 122.39 11.08 122.816 11.08C123.211 11.08 123.574 10.9893 123.904 10.808C124.246 10.616 124.528 10.312 124.752 9.896L126.688 10.952C126.368 11.6453 125.872 12.184 125.2 12.568C124.528 12.9413 123.739 13.128 122.832 13.128ZM127.279 13V4.392H129.775V13H127.279ZM128.527 3.192C128.068 3.192 127.695 3.05867 127.407 2.792C127.119 2.52533 126.975 2.19467 126.975 1.8C126.975 1.40533 127.119 1.07467 127.407 0.808C127.695 0.541333 128.068 0.407999 128.527 0.407999C128.985 0.407999 129.359 0.535999 129.647 0.792C129.935 1.03733 130.079 1.35733 130.079 1.752C130.079 2.168 129.935 2.51467 129.647 2.792C129.369 3.05867 128.996 3.192 128.527 3.192ZM130.651 16.232C130.267 16.232 129.899 16.1893 129.547 16.104C129.195 16.0293 128.896 15.912 128.651 15.752L129.323 13.944C129.611 14.1467 129.963 14.248 130.379 14.248C130.688 14.248 130.934 14.1413 131.115 13.928C131.307 13.7253 131.403 13.416 131.403 13V4.392H133.899V12.984C133.899 13.976 133.616 14.7653 133.051 15.352C132.486 15.9387 131.686 16.232 130.651 16.232ZM132.651 3.192C132.192 3.192 131.819 3.05867 131.531 2.792C131.243 2.52533 131.099 2.19467 131.099 1.8C131.099 1.40533 131.243 1.07467 131.531 0.808C131.819 0.541333 132.192 0.407999 132.651 0.407999C133.11 0.407999 133.483 0.535999 133.771 0.792C134.059 1.03733 134.203 1.35733 134.203 1.752C134.203 2.168 134.059 2.51467 133.771 2.792C133.494 3.05867 133.12 3.192 132.651 3.192ZM140.677 13V11.32L140.517 10.952V7.944C140.517 7.41067 140.352 6.99467 140.021 6.696C139.701 6.39733 139.205 6.248 138.533 6.248C138.075 6.248 137.621 6.32267 137.173 6.472C136.736 6.61067 136.363 6.80267 136.053 7.048L135.157 5.304C135.627 4.97333 136.192 4.71733 136.853 4.536C137.515 4.35467 138.187 4.264 138.869 4.264C140.181 4.264 141.2 4.57333 141.925 5.192C142.651 5.81067 143.013 6.776 143.013 8.088V13H140.677ZM138.053 13.128C137.381 13.128 136.805 13.016 136.325 12.792C135.845 12.5573 135.477 12.2427 135.221 11.848C134.965 11.4533 134.837 11.0107 134.837 10.52C134.837 10.008 134.96 9.56 135.205 9.176C135.461 8.792 135.861 8.49333 136.405 8.28C136.949 8.056 137.659 7.944 138.533 7.944H140.821V9.4H138.805C138.219 9.4 137.813 9.496 137.589 9.688C137.376 9.88 137.269 10.12 137.269 10.408C137.269 10.728 137.392 10.984 137.637 11.176C137.893 11.3573 138.24 11.448 138.677 11.448C139.093 11.448 139.467 11.352 139.797 11.16C140.128 10.9573 140.368 10.664 140.517 10.28L140.901 11.432C140.72 11.9867 140.389 12.408 139.909 12.696C139.429 12.984 138.811 13.128 138.053 13.128ZM0.763874 42V25.2H8.03587C9.53987 25.2 10.8359 25.448 11.9239 25.944C13.0119 26.424 13.8519 27.12 14.4439 28.032C15.0359 28.944 15.3319 30.032 15.3319 31.296C15.3319 32.544 15.0359 33.624 14.4439 34.536C13.8519 35.448 13.0119 36.152 11.9239 36.648C10.8359 37.128 9.53987 37.368 8.03587 37.368H2.92387L4.65187 35.616V42H0.763874ZM4.65187 36.048L2.92387 34.2H7.81987C9.01987 34.2 9.91587 33.944 10.5079 33.432C11.0999 32.92 11.3959 32.208 11.3959 31.296C11.3959 30.368 11.0999 29.648 10.5079 29.136C9.91587 28.624 9.01987 28.368 7.81987 28.368H2.92387L4.65187 26.52V36.048ZM22.326 42.192C21.254 42.192 20.294 41.984 19.446 41.568C18.614 41.152 17.966 40.52 17.502 39.672C17.038 38.808 16.806 37.712 16.806 36.384V29.088H20.55V35.832C20.55 36.904 20.774 37.696 21.222 38.208C21.686 38.704 22.334 38.952 23.166 38.952C23.742 38.952 24.254 38.832 24.702 38.592C25.15 38.336 25.502 37.952 25.758 37.44C26.014 36.912 26.142 36.256 26.142 35.472V29.088H29.886V42H26.334V38.448L26.982 39.48C26.55 40.376 25.91 41.056 25.062 41.52C24.23 41.968 23.318 42.192 22.326 42.192ZM37.4346 42.192C35.9146 42.192 34.7306 41.808 33.8826 41.04C33.0346 40.256 32.6106 39.096 32.6106 37.56V26.232H36.3546V37.512C36.3546 38.056 36.4986 38.48 36.7866 38.784C37.0746 39.072 37.4666 39.216 37.9626 39.216C38.5546 39.216 39.0586 39.056 39.4746 38.736L40.4826 41.376C40.0986 41.648 39.6346 41.856 39.0906 42C38.5626 42.128 38.0106 42.192 37.4346 42.192ZM30.6186 32.256V29.376H39.5706V32.256H30.6186ZM47.3938 42.192C45.9218 42.192 44.6258 41.904 43.5058 41.328C42.4018 40.752 41.5458 39.968 40.9378 38.976C40.3298 37.968 40.0258 36.824 40.0258 35.544C40.0258 34.248 40.3218 33.104 40.9138 32.112C41.5218 31.104 42.3458 30.32 43.3858 29.76C44.4258 29.184 45.6018 28.896 46.9138 28.896C48.1778 28.896 49.3138 29.168 50.3218 29.712C51.3458 30.24 52.1538 31.008 52.7458 32.016C53.3378 33.008 53.6338 34.2 53.6338 35.592C53.6338 35.736 53.6258 35.904 53.6098 36.096C53.5938 36.272 53.5778 36.44 53.5618 36.6H43.0738V34.416H51.5938L50.1538 35.064C50.1538 34.392 50.0178 33.808 49.7458 33.312C49.4738 32.816 49.0978 32.432 48.6178 32.16C48.1378 31.872 47.5778 31.728 46.9378 31.728C46.2978 31.728 45.7298 31.872 45.2338 32.16C44.7538 32.432 44.3778 32.824 44.1058 33.336C43.8338 33.832 43.6978 34.424 43.6978 35.112V35.688C43.6978 36.392 43.8498 37.016 44.1538 37.56C44.4738 38.088 44.9138 38.496 45.4738 38.784C46.0498 39.056 46.7218 39.192 47.4898 39.192C48.1778 39.192 48.7778 39.088 49.2898 38.88C49.8178 38.672 50.2978 38.36 50.7298 37.944L52.7218 40.104C52.1298 40.776 51.3858 41.296 50.4898 41.664C49.5938 42.016 48.5618 42.192 47.3938 42.192ZM58.1961 42L52.7721 29.088H56.6361L61.1481 40.2H59.2281L63.9081 29.088H67.5081L62.0601 42H58.1961ZM67.8358 42V29.088H71.5798V42H67.8358ZM69.7078 27.288C69.0198 27.288 68.4598 27.088 68.0278 26.688C67.5958 26.288 67.3798 25.792 67.3798 25.2C67.3798 24.608 67.5958 24.112 68.0278 23.712C68.4598 23.312 69.0198 23.112 69.7078 23.112C70.3958 23.112 70.9558 23.304 71.3878 23.688C71.8198 24.056 72.0358 24.536 72.0358 25.128C72.0358 25.752 71.8198 26.272 71.3878 26.688C70.9718 27.088 70.4118 27.288 69.7078 27.288ZM90.3906 28.896C91.4146 28.896 92.3186 29.104 93.1026 29.52C93.9026 29.92 94.5266 30.544 94.9746 31.392C95.4386 32.224 95.6706 33.296 95.6706 34.608V42H91.9266V35.184C91.9266 34.144 91.7106 33.376 91.2786 32.88C90.8466 32.384 90.2386 32.136 89.4546 32.136C88.9106 32.136 88.4226 32.264 87.9906 32.52C87.5586 32.76 87.2226 33.128 86.9826 33.624C86.7426 34.12 86.6226 34.752 86.6226 35.52V42H82.8786V35.184C82.8786 34.144 82.6626 33.376 82.2306 32.88C81.8146 32.384 81.2146 32.136 80.4306 32.136C79.8866 32.136 79.3986 32.264 78.9666 32.52C78.5346 32.76 78.1986 33.128 77.9586 33.624C77.7186 34.12 77.5986 34.752 77.5986 35.52V42H73.8546V29.088H77.4306V32.616L76.7586 31.584C77.2066 30.704 77.8386 30.04 78.6546 29.592C79.4866 29.128 80.4306 28.896 81.4866 28.896C82.6706 28.896 83.7026 29.2 84.5826 29.808C85.4786 30.4 86.0706 31.312 86.3586 32.544L85.0386 32.184C85.4706 31.176 86.1586 30.376 87.1026 29.784C88.0626 29.192 89.1586 28.896 90.3906 28.896ZM103.687 42V25.2H111.319C113.143 25.2 114.751 25.552 116.143 26.256C117.535 26.944 118.623 27.912 119.407 29.16C120.191 30.408 120.583 31.888 120.583 33.6C120.583 35.296 120.191 36.776 119.407 38.04C118.623 39.288 117.535 40.264 116.143 40.968C114.751 41.656 113.143 42 111.319 42H103.687ZM107.575 38.808H111.127C112.247 38.808 113.215 38.6 114.031 38.184C114.863 37.752 115.503 37.144 115.951 36.36C116.415 35.576 116.647 34.656 116.647 33.6C116.647 32.528 116.415 31.608 115.951 30.84C115.503 30.056 114.863 29.456 114.031 29.04C113.215 28.608 112.247 28.392 111.127 28.392H107.575V38.808ZM128.459 42.192C126.987 42.192 125.691 41.904 124.571 41.328C123.467 40.752 122.611 39.968 122.003 38.976C121.395 37.968 121.091 36.824 121.091 35.544C121.091 34.248 121.387 33.104 121.979 32.112C122.587 31.104 123.411 30.32 124.451 29.76C125.491 29.184 126.667 28.896 127.979 28.896C129.243 28.896 130.379 29.168 131.387 29.712C132.411 30.24 133.219 31.008 133.811 32.016C134.403 33.008 134.699 34.2 134.699 35.592C134.699 35.736 134.691 35.904 134.675 36.096C134.659 36.272 134.643 36.44 134.627 36.6H124.139V34.416H132.659L131.219 35.064C131.219 34.392 131.083 33.808 130.811 33.312C130.539 32.816 130.163 32.432 129.683 32.16C129.203 31.872 128.643 31.728 128.003 31.728C127.363 31.728 126.795 31.872 126.299 32.16C125.819 32.432 125.443 32.824 125.171 33.336C124.899 33.832 124.763 34.424 124.763 35.112V35.688C124.763 36.392 124.915 37.016 125.219 37.56C125.539 38.088 125.979 38.496 126.539 38.784C127.115 39.056 127.787 39.192 128.555 39.192C129.243 39.192 129.843 39.088 130.355 38.88C130.883 38.672 131.363 38.36 131.795 37.944L133.787 40.104C133.195 40.776 132.451 41.296 131.555 41.664C130.659 42.016 129.627 42.192 128.459 42.192ZM139.262 42L133.838 29.088H137.702L142.214 40.2H140.294L144.974 29.088H148.574L143.126 42H139.262ZM154.694 42.192C153.318 42.192 152.094 41.904 151.022 41.328C149.966 40.752 149.126 39.968 148.502 38.976C147.894 37.968 147.59 36.824 147.59 35.544C147.59 34.248 147.894 33.104 148.502 32.112C149.126 31.104 149.966 30.32 151.022 29.76C152.094 29.184 153.318 28.896 154.694 28.896C156.054 28.896 157.27 29.184 158.342 29.76C159.414 30.32 160.254 31.096 160.862 32.088C161.47 33.08 161.774 34.232 161.774 35.544C161.774 36.824 161.47 37.968 160.862 38.976C160.254 39.968 159.414 40.752 158.342 41.328C157.27 41.904 156.054 42.192 154.694 42.192ZM154.694 39.12C155.318 39.12 155.878 38.976 156.374 38.688C156.87 38.4 157.262 37.992 157.55 37.464C157.838 36.92 157.982 36.28 157.982 35.544C157.982 34.792 157.838 34.152 157.55 33.624C157.262 33.096 156.87 32.688 156.374 32.4C155.878 32.112 155.318 31.968 154.694 31.968C154.07 31.968 153.51 32.112 153.014 32.4C152.518 32.688 152.118 33.096 151.814 33.624C151.526 34.152 151.382 34.792 151.382 35.544C151.382 36.28 151.526 36.92 151.814 37.464C152.118 37.992 152.518 38.4 153.014 38.688C153.51 38.976 154.07 39.12 154.694 39.12ZM162.116 46.848C161.54 46.848 160.988 46.784 160.46 46.656C159.932 46.544 159.484 46.368 159.116 46.128L160.124 43.416C160.556 43.72 161.084 43.872 161.708 43.872C162.172 43.872 162.54 43.712 162.812 43.392C163.1 43.088 163.244 42.624 163.244 42V29.088H166.988V41.976C166.988 43.464 166.564 44.648 165.716 45.528C164.868 46.408 163.668 46.848 162.116 46.848ZM165.116 27.288C164.428 27.288 163.868 27.088 163.436 26.688C163.004 26.288 162.788 25.792 162.788 25.2C162.788 24.608 163.004 24.112 163.436 23.712C163.868 23.312 164.428 23.112 165.116 23.112C165.804 23.112 166.364 23.304 166.796 23.688C167.228 24.056 167.444 24.536 167.444 25.128C167.444 25.752 167.228 26.272 166.796 26.688C166.38 27.088 165.82 27.288 165.116 27.288ZM175.476 42.192C174.084 42.192 172.844 41.912 171.756 41.352C170.668 40.776 169.812 39.984 169.188 38.976C168.58 37.968 168.276 36.824 168.276 35.544C168.276 34.248 168.58 33.104 169.188 32.112C169.812 31.104 170.668 30.32 171.756 29.76C172.844 29.184 174.084 28.896 175.476 28.896C176.836 28.896 178.02 29.184 179.028 29.76C180.036 30.32 180.78 31.128 181.26 32.184L178.356 33.744C178.02 33.136 177.596 32.688 177.084 32.4C176.588 32.112 176.044 31.968 175.452 31.968C174.812 31.968 174.236 32.112 173.724 32.4C173.212 32.688 172.804 33.096 172.5 33.624C172.212 34.152 172.068 34.792 172.068 35.544C172.068 36.296 172.212 36.936 172.5 37.464C172.804 37.992 173.212 38.4 173.724 38.688C174.236 38.976 174.812 39.12 175.452 39.12C176.044 39.12 176.588 38.984 177.084 38.712C177.596 38.424 178.02 37.968 178.356 37.344L181.26 38.928C180.78 39.968 180.036 40.776 179.028 41.352C178.02 41.912 176.836 42.192 175.476 42.192ZM173.364 27.432L170.196 23.976H172.932L176.244 26.832H173.796L177.108 23.976H179.844L176.676 27.432H173.364ZM182.145 42V29.088H185.889V42H182.145ZM184.017 27.288C183.329 27.288 182.769 27.088 182.337 26.688C181.905 26.288 181.689 25.792 181.689 25.2C181.689 24.608 181.905 24.112 182.337 23.712C182.769 23.312 183.329 23.112 184.017 23.112C184.705 23.112 185.265 23.304 185.697 23.688C186.129 24.056 186.345 24.536 186.345 25.128C186.345 25.752 186.129 26.272 185.697 26.688C185.281 27.088 184.721 27.288 184.017 27.288ZM194.404 42.192C193.012 42.192 191.772 41.912 190.684 41.352C189.596 40.776 188.74 39.984 188.116 38.976C187.508 37.968 187.204 36.824 187.204 35.544C187.204 34.248 187.508 33.104 188.116 32.112C188.74 31.104 189.596 30.32 190.684 29.76C191.772 29.184 193.012 28.896 194.404 28.896C195.764 28.896 196.948 29.184 197.956 29.76C198.964 30.32 199.708 31.128 200.188 32.184L197.284 33.744C196.948 33.136 196.524 32.688 196.012 32.4C195.516 32.112 194.972 31.968 194.38 31.968C193.74 31.968 193.164 32.112 192.652 32.4C192.14 32.688 191.732 33.096 191.428 33.624C191.14 34.152 190.996 34.792 190.996 35.544C190.996 36.296 191.14 36.936 191.428 37.464C191.732 37.992 192.14 38.4 192.652 38.688C193.164 38.976 193.74 39.12 194.38 39.12C194.972 39.12 195.516 38.984 196.012 38.712C196.524 38.424 196.948 37.968 197.284 37.344L200.188 38.928C199.708 39.968 198.964 40.776 197.956 41.352C196.948 41.912 195.764 42.192 194.404 42.192ZM209.064 42V39.48L208.824 38.928V34.416C208.824 33.616 208.576 32.992 208.08 32.544C207.6 32.096 206.856 31.872 205.848 31.872C205.16 31.872 204.48 31.984 203.808 32.208C203.152 32.416 202.592 32.704 202.128 33.072L200.784 30.456C201.488 29.96 202.336 29.576 203.328 29.304C204.32 29.032 205.328 28.896 206.352 28.896C208.32 28.896 209.848 29.36 210.936 30.288C212.024 31.216 212.568 32.664 212.568 34.632V42H209.064ZM205.128 42.192C204.12 42.192 203.256 42.024 202.536 41.688C201.816 41.336 201.264 40.864 200.88 40.272C200.496 39.68 200.304 39.016 200.304 38.28C200.304 37.512 200.488 36.84 200.856 36.264C201.24 35.688 201.84 35.24 202.656 34.92C203.472 34.584 204.536 34.416 205.848 34.416H209.28V36.6H206.256C205.376 36.6 204.768 36.744 204.432 37.032C204.112 37.32 203.952 37.68 203.952 38.112C203.952 38.592 204.136 38.976 204.504 39.264C204.888 39.536 205.408 39.672 206.064 39.672C206.688 39.672 207.248 39.528 207.744 39.24C208.24 38.936 208.6 38.496 208.824 37.92L209.4 39.648C209.128 40.48 208.632 41.112 207.912 41.544C207.192 41.976 206.264 42.192 205.128 42.192Z" fill="white"/>
</svg>
