<svg width="37" height="47" viewBox="0 0 37 47" fill="none" xmlns="http://www.w3.org/2000/svg">
<path d="M31 24.7779C31 19.0001 35.6667 16.3335 35.8889 16.1112C33.2222 12.1112 29 11.6668 27.6667 11.6668C24.1111 11.2224 20.7778 13.6668 19 13.6668C17.2222 13.6668 14.5556 11.6668 11.4444 11.6668C7.66667 11.6668 4.11111 13.889 2.11111 17.4446C-1.88889 24.3335 1 34.5557 5 40.3335C7 43.0001 9.22222 46.1112 12.1111 46.1112C15 45.889 15.8889 44.1112 19.4444 44.1112C23 44.1112 23.8889 45.889 27 45.889C30.1111 45.889 32.1111 43.2224 33.8889 40.3335C36.1111 37.2224 37 34.1112 37 33.889C37 33.889 31 31.6668 31 24.7779Z" fill="white"/>
<path d="M25.2222 7.889C26.7778 5.889 27.8889 3.22233 27.4444 0.555664C25.2222 0.555664 22.3333 2.11122 20.7778 4.11122C19.4444 5.889 18.1111 8.55566 18.3333 11.0001C21 11.2223 23.6667 9.889 25.2222 7.889Z" fill="white"/>
</svg>
