<svg width="41" height="41" viewBox="0 0 41 41" fill="none" xmlns="http://www.w3.org/2000/svg">
<path d="M6.32617 34.3268H12.4922V15.8021H6.32617V34.3268ZM12.8926 10.0898C12.8748 9.1645 12.5545 8.39931 11.9316 7.79427C11.3088 7.18924 10.4813 6.88672 9.44922 6.88672C8.4171 6.88672 7.57628 7.18924 6.92676 7.79427C6.27724 8.39931 5.95247 9.1645 5.95247 10.0898C5.95247 10.9974 6.26834 11.7581 6.90007 12.3721C7.53179 12.986 8.35482 13.293 9.36914 13.293H9.39583C10.4457 13.293 11.291 12.986 11.9316 12.3721C12.5723 11.7581 12.8926 10.9974 12.8926 10.0898ZM28.5078 34.3268H34.6738V23.7031C34.6738 20.9627 34.0243 18.8895 32.7253 17.4837C31.4262 16.0779 29.709 15.375 27.5736 15.375C25.1534 15.375 23.2938 16.416 21.9948 18.498H22.0482V15.8021H15.8822C15.9355 16.9766 15.9355 23.1515 15.8822 34.3268H22.0482V23.9701C22.0482 23.2938 22.1105 22.7956 22.235 22.4753C22.502 21.8524 22.9023 21.323 23.4362 20.887C23.9701 20.4511 24.6285 20.2331 25.4115 20.2331C27.4757 20.2331 28.5078 21.63 28.5078 24.4238V34.3268ZM41 7.6875V33.3125C41 35.4301 40.2482 37.2408 38.7445 38.7445C37.2408 40.2482 35.4301 41 33.3125 41H7.6875C5.56988 41 3.75922 40.2482 2.25553 38.7445C0.751845 37.2408 0 35.4301 0 33.3125V7.6875C0 5.56988 0.751845 3.75922 2.25553 2.25553C3.75922 0.751845 5.56988 0 7.6875 0H33.3125C35.4301 0 37.2408 0.751845 38.7445 2.25553C40.2482 3.75922 41 5.56988 41 7.6875Z" fill="white"/>
</svg>
