<svg width="630" height="130" viewBox="0 0 630 130" fill="none" xmlns="http://www.w3.org/2000/svg">
<path d="M219.851 18.7974H234.865V24.6061H219.851V18.7974ZM220.388 36H213.149V4.72258H236.786V10.5312H220.388V36ZM249.832 36.3575C247.27 36.3575 244.991 35.8213 242.996 34.7489C241.03 33.6765 239.466 32.2169 238.304 30.3701C237.172 28.4934 236.606 26.3636 236.606 23.9805C236.606 21.5677 237.172 19.4379 238.304 17.591C239.466 15.7144 241.03 14.2547 242.996 13.2122C244.991 12.1398 247.27 11.6036 249.832 11.6036C252.364 11.6036 254.628 12.1398 256.624 13.2122C258.619 14.2547 260.183 15.6995 261.315 17.5463C262.447 19.3932 263.013 21.5379 263.013 23.9805C263.013 26.3636 262.447 28.4934 261.315 30.3701C260.183 32.2169 258.619 33.6765 256.624 34.7489C254.628 35.8213 252.364 36.3575 249.832 36.3575ZM249.832 30.6382C250.994 30.6382 252.036 30.3701 252.96 29.8339C253.883 29.2977 254.613 28.5381 255.149 27.5551C255.685 26.5423 255.953 25.3508 255.953 23.9805C255.953 22.5805 255.685 21.389 255.149 20.406C254.613 19.423 253.883 18.6634 252.96 18.1272C252.036 17.591 250.994 17.3229 249.832 17.3229C248.67 17.3229 247.628 17.591 246.704 18.1272C245.781 18.6634 245.036 19.423 244.47 20.406C243.934 21.389 243.666 22.5805 243.666 23.9805C243.666 25.3508 243.934 26.5423 244.47 27.5551C245.036 28.5381 245.781 29.2977 246.704 29.8339C247.628 30.3701 248.67 30.6382 249.832 30.6382ZM280.049 11.6036C281.956 11.6036 283.654 11.9909 285.143 12.7653C286.662 13.51 287.854 14.6718 288.718 16.2505C289.581 17.7995 290.013 19.7953 290.013 22.2379V36H283.043V23.3103C283.043 21.3741 282.611 19.9443 281.747 19.0208C280.913 18.0974 279.722 17.6357 278.173 17.6357C277.07 17.6357 276.073 17.874 275.179 18.3506C274.315 18.7974 273.63 19.4974 273.124 20.4507C272.647 21.4039 272.409 22.6252 272.409 24.1146V36H265.438V11.9611H272.096V18.6187L270.845 16.608C271.709 14.9994 272.945 13.7632 274.553 12.8994C276.162 12.0355 277.994 11.6036 280.049 11.6036ZM304.594 36.3575C302.33 36.3575 300.289 35.8511 298.472 34.8383C296.655 33.7957 295.21 32.351 294.138 30.5041C293.096 28.6573 292.574 26.4827 292.574 23.9805C292.574 21.4486 293.096 19.2591 294.138 17.4123C295.21 15.5654 296.655 14.1356 298.472 13.1228C300.289 12.11 302.33 11.6036 304.594 11.6036C306.619 11.6036 308.392 12.0504 309.911 12.9441C311.43 13.8377 312.607 15.1931 313.441 17.0101C314.275 18.8272 314.692 21.1507 314.692 23.9805C314.692 26.7806 314.29 29.1041 313.485 30.9509C312.681 32.768 311.519 34.1234 310 35.017C308.511 35.9106 306.709 36.3575 304.594 36.3575ZM305.8 30.6382C306.932 30.6382 307.96 30.3701 308.883 29.8339C309.807 29.2977 310.536 28.5381 311.073 27.5551C311.639 26.5423 311.922 25.3508 311.922 23.9805C311.922 22.5805 311.639 21.389 311.073 20.406C310.536 19.423 309.807 18.6634 308.883 18.1272C307.96 17.591 306.932 17.3229 305.8 17.3229C304.638 17.3229 303.596 17.591 302.672 18.1272C301.749 18.6634 301.004 19.423 300.438 20.406C299.902 21.389 299.634 22.5805 299.634 23.9805C299.634 25.3508 299.902 26.5423 300.438 27.5551C301.004 28.5381 301.749 29.2977 302.672 29.8339C303.596 30.3701 304.638 30.6382 305.8 30.6382ZM312.1 36V31.085L312.234 23.9359L311.787 16.8314V2.84593H318.758V36H312.1ZM337.72 36V31.3084L337.273 30.2807V21.8805C337.273 20.3911 336.812 19.2293 335.888 18.3953C334.995 17.5612 333.609 17.1442 331.733 17.1442C330.452 17.1442 329.186 17.3527 327.935 17.7697C326.713 18.157 325.671 18.6932 324.807 19.3783L322.305 14.5079C323.616 13.5845 325.194 12.8696 327.041 12.3632C328.888 11.8568 330.765 11.6036 332.671 11.6036C336.335 11.6036 339.18 12.4675 341.205 14.1952C343.231 15.9229 344.244 18.6187 344.244 22.2826V36H337.72ZM330.392 36.3575C328.516 36.3575 326.907 36.0447 325.567 35.4191C324.226 34.7638 323.199 33.8851 322.484 32.7829C321.769 31.6807 321.411 30.4445 321.411 29.0743C321.411 27.6445 321.754 26.3934 322.439 25.321C323.154 24.2486 324.271 23.4146 325.79 22.8188C327.309 22.1933 329.29 21.8805 331.733 21.8805H338.122V25.9465H332.492C330.854 25.9465 329.722 26.2146 329.097 26.7508C328.501 27.287 328.203 27.9572 328.203 28.7615C328.203 29.6552 328.545 30.3701 329.231 30.9062C329.945 31.4126 330.914 31.6658 332.135 31.6658C333.297 31.6658 334.339 31.3978 335.263 30.8616C336.186 30.2956 336.856 29.4764 337.273 28.4041L338.346 31.6212C337.839 33.1701 336.916 34.3468 335.575 35.151C334.235 35.9553 332.507 36.3575 330.392 36.3575ZM360.11 36.3575C357.519 36.3575 355.21 35.8362 353.184 34.7936C351.159 33.7212 349.565 32.2467 348.403 30.3701C347.271 28.4934 346.705 26.3636 346.705 23.9805C346.705 21.5677 347.271 19.4379 348.403 17.591C349.565 15.7144 351.159 14.2547 353.184 13.2122C355.21 12.1398 357.519 11.6036 360.11 11.6036C362.642 11.6036 364.846 12.1398 366.723 13.2122C368.6 14.2547 369.985 15.759 370.878 17.7251L365.472 20.6294C364.846 19.4974 364.057 18.6634 363.104 18.1272C362.18 17.591 361.168 17.3229 360.065 17.3229C358.874 17.3229 357.801 17.591 356.848 18.1272C355.895 18.6634 355.135 19.423 354.569 20.406C354.033 21.389 353.765 22.5805 353.765 23.9805C353.765 25.3806 354.033 26.5721 354.569 27.5551C355.135 28.5381 355.895 29.2977 356.848 29.8339C357.801 30.3701 358.874 30.6382 360.065 30.6382C361.168 30.6382 362.18 30.385 363.104 29.8786C364.057 29.3424 364.846 28.4934 365.472 27.3317L370.878 30.2807C369.985 32.2169 368.6 33.7212 366.723 34.7936C364.846 35.8362 362.642 36.3575 360.11 36.3575ZM372.527 36V11.9611H379.497V36H372.527ZM376.012 8.60992C374.731 8.60992 373.689 8.23757 372.884 7.49287C372.08 6.74817 371.678 5.82474 371.678 4.72258C371.678 3.62042 372.08 2.69699 372.884 1.9523C373.689 1.20759 374.731 0.835243 376.012 0.835243C377.293 0.835243 378.335 1.1927 379.14 1.90761C379.944 2.59274 380.346 3.48638 380.346 4.58854C380.346 5.75027 379.944 6.71838 379.14 7.49287C378.365 8.23757 377.323 8.60992 376.012 8.60992ZM381.945 45.0258C380.873 45.0258 379.845 44.9066 378.862 44.6683C377.879 44.4598 377.045 44.1321 376.36 43.6853L378.236 38.6362C379.041 39.2022 380.024 39.4852 381.185 39.4852C382.049 39.4852 382.734 39.1873 383.241 38.5916C383.777 38.0256 384.045 37.1617 384.045 36V11.9611H391.015V35.9553C391.015 38.7256 390.226 40.9299 388.647 42.5683C387.068 44.2066 384.834 45.0258 381.945 45.0258ZM387.53 8.60992C386.249 8.60992 385.207 8.23757 384.402 7.49287C383.598 6.74817 383.196 5.82474 383.196 4.72258C383.196 3.62042 383.598 2.69699 384.402 1.9523C385.207 1.20759 386.249 0.835243 387.53 0.835243C388.811 0.835243 389.854 1.1927 390.658 1.90761C391.462 2.59274 391.864 3.48638 391.864 4.58854C391.864 5.75027 391.462 6.71838 390.658 7.49287C389.883 8.23757 388.841 8.60992 387.53 8.60992ZM409.944 36V31.3084L409.498 30.2807V21.8805C409.498 20.3911 409.036 19.2293 408.113 18.3953C407.219 17.5612 405.834 17.1442 403.957 17.1442C402.676 17.1442 401.41 17.3527 400.159 17.7697C398.938 18.157 397.895 18.6932 397.031 19.3783L394.529 14.5079C395.84 13.5845 397.419 12.8696 399.265 12.3632C401.112 11.8568 402.989 11.6036 404.895 11.6036C408.559 11.6036 411.404 12.4675 413.43 14.1952C415.455 15.9229 416.468 18.6187 416.468 22.2826V36H409.944ZM402.617 36.3575C400.74 36.3575 399.131 36.0447 397.791 35.4191C396.451 34.7638 395.423 33.8851 394.708 32.7829C393.993 31.6807 393.636 30.4445 393.636 29.0743C393.636 27.6445 393.978 26.3934 394.663 25.321C395.378 24.2486 396.495 23.4146 398.014 22.8188C399.534 22.1933 401.514 21.8805 403.957 21.8805H410.347V25.9465H404.717C403.078 25.9465 401.946 26.2146 401.321 26.7508C400.725 27.287 400.427 27.9572 400.427 28.7615C400.427 29.6552 400.77 30.3701 401.455 30.9062C402.17 31.4126 403.138 31.6658 404.359 31.6658C405.521 31.6658 406.564 31.3978 407.487 30.8616C408.41 30.2956 409.081 29.4764 409.498 28.4041L410.57 31.6212C410.064 33.1701 409.14 34.3468 407.8 35.151C406.459 35.9553 404.732 36.3575 402.617 36.3575ZM0.211167 116V69.0839H20.5191C24.7193 69.0839 28.3385 69.7764 31.3769 71.1616C34.4153 72.502 36.7611 74.4457 38.4143 76.9926C40.0675 79.5395 40.8942 82.5778 40.8942 86.1077C40.8942 89.5929 40.0675 92.609 38.4143 95.1558C36.7611 97.7027 34.4153 99.6687 31.3769 101.054C28.3385 102.394 24.7193 103.065 20.5191 103.065H6.24324L11.0689 98.1719V116H0.211167ZM11.0689 99.3783L6.24324 94.2175H19.9159C23.2671 94.2175 25.7693 93.5026 27.4225 92.0728C29.0758 90.6429 29.9024 88.6546 29.9024 86.1077C29.9024 83.5162 29.0758 81.5055 27.4225 80.0756C25.7693 78.6458 23.2671 77.9309 19.9159 77.9309H6.24324L11.0689 72.7701V99.3783ZM60.4261 116.536C57.4324 116.536 54.7515 115.955 52.3834 114.794C50.0599 113.632 48.2503 111.867 46.9545 109.499C45.6587 107.086 45.0108 104.025 45.0108 100.317V79.9416H55.4664V98.7751C55.4664 101.769 56.092 103.981 57.3431 105.41C58.6389 106.796 60.4485 107.488 62.7719 107.488C64.3805 107.488 65.8103 107.153 67.0614 106.483C68.3125 105.768 69.2955 104.695 70.0104 103.266C70.7253 101.791 71.0828 99.9592 71.0828 97.7697V79.9416H81.5384V116H71.619V106.081L73.4286 108.963C72.2222 111.465 70.4349 113.364 68.0668 114.66C65.7433 115.911 63.1964 116.536 60.4261 116.536ZM102.619 116.536C98.3739 116.536 95.0674 115.464 92.6993 113.319C90.3312 111.13 89.1471 107.89 89.1471 103.601V71.9659H99.6027V103.467C99.6027 104.986 100.005 106.17 100.809 107.019C101.613 107.823 102.708 108.225 104.093 108.225C105.746 108.225 107.154 107.779 108.316 106.885L111.131 114.257C110.058 115.017 108.762 115.598 107.243 116C105.769 116.357 104.227 116.536 102.619 116.536ZM83.5842 88.7886V80.7459H108.584V88.7886H83.5842ZM130.431 116.536C126.32 116.536 122.701 115.732 119.573 114.123C116.49 112.515 114.1 110.325 112.402 107.555C110.704 104.74 109.855 101.545 109.855 97.9708C109.855 94.3516 110.682 91.1568 112.335 88.3865C114.033 85.5715 116.334 83.3821 119.238 81.8182C122.143 80.2097 125.427 79.4054 129.091 79.4054C132.621 79.4054 135.793 80.165 138.608 81.6842C141.468 83.1587 143.724 85.3034 145.377 88.1184C147.031 90.8887 147.857 94.2175 147.857 98.1048C147.857 98.507 147.835 98.9761 147.79 99.5123C147.745 100.004 147.701 100.473 147.656 100.92H118.367V94.8207H142.16L138.139 96.6303C138.139 94.7537 137.759 93.1228 136.999 91.7377C136.24 90.3525 135.19 89.2801 133.849 88.5206C132.509 87.7163 130.945 87.3141 129.158 87.3141C127.37 87.3141 125.784 87.7163 124.399 88.5206C123.059 89.2801 122.009 90.3749 121.249 91.8047C120.489 93.1898 120.11 94.8431 120.11 96.7644V98.3729C120.11 100.339 120.534 102.082 121.383 103.601C122.277 105.075 123.505 106.215 125.069 107.019C126.678 107.779 128.555 108.158 130.699 108.158C132.621 108.158 134.296 107.868 135.726 107.287C137.201 106.706 138.541 105.835 139.747 104.673L145.31 110.705C143.657 112.582 141.579 114.034 139.077 115.062C136.575 116.045 133.693 116.536 130.431 116.536ZM160.598 116L145.451 79.9416H156.241L168.842 110.973H163.48L176.549 79.9416H186.603L171.389 116H160.598ZM187.518 116V79.9416H197.974V116H187.518ZM192.746 74.9149C190.825 74.9149 189.261 74.3563 188.054 73.2393C186.848 72.1222 186.245 70.7371 186.245 69.0839C186.245 67.4306 186.848 66.0455 188.054 64.9284C189.261 63.8114 190.825 63.2529 192.746 63.2529C194.667 63.2529 196.231 63.789 197.437 64.8614C198.644 65.8891 199.247 67.2296 199.247 68.8828C199.247 70.6254 198.644 72.0776 197.437 73.2393C196.276 74.3563 194.712 74.9149 192.746 74.9149ZM250.505 79.4054C253.365 79.4054 255.889 79.9863 258.079 81.148C260.313 82.2651 262.055 84.0077 263.306 86.3758C264.602 88.6993 265.25 91.693 265.25 95.3569V116H254.795V96.9655C254.795 94.0611 254.191 91.9164 252.985 90.5312C251.778 89.1461 250.081 88.4535 247.891 88.4535C246.372 88.4535 245.009 88.811 243.803 89.5259C242.596 90.1961 241.658 91.2238 240.988 92.609C240.318 93.9941 239.982 95.759 239.982 97.9038V116H229.527V96.9655C229.527 94.0611 228.924 91.9164 227.717 90.5312C226.555 89.1461 224.88 88.4535 222.69 88.4535C221.171 88.4535 219.809 88.811 218.602 89.5259C217.396 90.1961 216.457 91.2238 215.787 92.609C215.117 93.9941 214.782 95.759 214.782 97.9038V116H204.326V79.9416H214.313V89.794L212.436 86.912C213.687 84.4545 215.452 82.6002 217.731 81.3491C220.054 80.0533 222.69 79.4054 225.64 79.4054C228.946 79.4054 231.828 80.2544 234.285 81.9523C236.788 83.6055 238.441 86.1524 239.245 89.5929L235.559 88.5876C236.765 85.7726 238.687 83.5385 241.323 81.8853C244.004 80.232 247.065 79.4054 250.505 79.4054ZM293.388 116V108.963L292.718 107.421V94.8207C292.718 92.5866 292.025 90.844 290.64 89.5929C289.3 88.3418 287.222 87.7163 284.407 87.7163C282.486 87.7163 280.587 88.029 278.71 88.6546C276.878 89.2355 275.314 90.0397 274.019 91.0674L270.265 83.7619C272.231 82.3768 274.599 81.3044 277.37 80.5448C280.14 79.7852 282.955 79.4054 285.815 79.4054C291.311 79.4054 295.578 80.7012 298.616 83.2928C301.654 85.8843 303.174 89.928 303.174 95.4239V116H293.388ZM282.396 116.536C279.582 116.536 277.169 116.067 275.158 115.129C273.147 114.146 271.606 112.828 270.533 111.174C269.461 109.521 268.925 107.667 268.925 105.611C268.925 103.467 269.439 101.59 270.466 99.9815C271.539 98.3729 273.214 97.1218 275.493 96.2282C277.772 95.2899 280.743 94.8207 284.407 94.8207H293.991V100.92H285.547C283.089 100.92 281.391 101.322 280.453 102.126C279.559 102.931 279.112 103.936 279.112 105.142C279.112 106.483 279.626 107.555 280.654 108.359C281.726 109.119 283.178 109.499 285.01 109.499C286.753 109.499 288.317 109.097 289.702 108.292C291.087 107.443 292.092 106.215 292.718 104.606L294.327 109.432C293.567 111.755 292.182 113.52 290.171 114.727C288.16 115.933 285.569 116.536 282.396 116.536ZM325.653 116V69.0839H346.966C352.06 69.0839 356.55 70.0669 360.438 72.0329C364.325 73.9542 367.363 76.6575 369.553 80.1427C371.742 83.6279 372.837 87.761 372.837 92.5419C372.837 97.2782 371.742 101.411 369.553 104.941C367.363 108.426 364.325 111.152 360.438 113.118C356.55 115.039 352.06 116 346.966 116H325.653ZM336.51 107.086H346.43C349.557 107.086 352.261 106.505 354.539 105.343C356.863 104.137 358.65 102.439 359.901 100.25C361.197 98.0602 361.845 95.4909 361.845 92.5419C361.845 89.5482 361.197 86.979 359.901 84.8343C358.65 82.6449 356.863 80.9693 354.539 79.8076C352.261 78.6011 349.557 77.9979 346.43 77.9979H336.51V107.086ZM394.832 116.536C390.721 116.536 387.102 115.732 383.974 114.123C380.891 112.515 378.501 110.325 376.803 107.555C375.105 104.74 374.256 101.545 374.256 97.9708C374.256 94.3516 375.082 91.1568 376.736 88.3865C378.434 85.5715 380.735 83.3821 383.639 81.8182C386.543 80.2097 389.827 79.4054 393.491 79.4054C397.021 79.4054 400.194 80.165 403.009 81.6842C405.868 83.1587 408.125 85.3034 409.778 88.1184C411.431 90.8887 412.258 94.2175 412.258 98.1048C412.258 98.507 412.235 98.9761 412.191 99.5123C412.146 100.004 412.101 100.473 412.057 100.92H382.768V94.8207H406.561L402.539 96.6303C402.539 94.7537 402.16 93.1228 401.4 91.7377C400.64 90.3525 399.59 89.2801 398.25 88.5206C396.91 87.7163 395.346 87.3141 393.558 87.3141C391.771 87.3141 390.185 87.7163 388.8 88.5206C387.459 89.2801 386.409 90.3749 385.65 91.8047C384.89 93.1898 384.51 94.8431 384.51 96.7644V98.3729C384.51 100.339 384.935 102.082 385.784 103.601C386.677 105.075 387.906 106.215 389.47 107.019C391.079 107.779 392.955 108.158 395.1 108.158C397.021 108.158 398.697 107.868 400.127 107.287C401.601 106.706 402.942 105.835 404.148 104.673L409.711 110.705C408.058 112.582 405.98 114.034 403.478 115.062C400.976 116.045 398.094 116.536 394.832 116.536ZM424.998 116L409.851 79.9416H420.642L433.242 110.973H427.88L440.95 79.9416H451.003L435.789 116H424.998ZM468.095 116.536C464.252 116.536 460.834 115.732 457.84 114.123C454.891 112.515 452.545 110.325 450.803 107.555C449.105 104.74 448.256 101.545 448.256 97.9708C448.256 94.3516 449.105 91.1568 450.803 88.3865C452.545 85.5715 454.891 83.3821 457.84 81.8182C460.834 80.2097 464.252 79.4054 468.095 79.4054C471.893 79.4054 475.289 80.2097 478.282 81.8182C481.276 83.3821 483.622 85.5492 485.32 88.3195C487.018 91.0898 487.867 94.3069 487.867 97.9708C487.867 101.545 487.018 104.74 485.32 107.555C483.622 110.325 481.276 112.515 478.282 114.123C475.289 115.732 471.893 116.536 468.095 116.536ZM468.095 107.957C469.837 107.957 471.401 107.555 472.786 106.751C474.172 105.947 475.266 104.807 476.071 103.333C476.875 101.813 477.277 100.026 477.277 97.9708C477.277 95.8707 476.875 94.0835 476.071 92.609C475.266 91.1345 474.172 89.9951 472.786 89.1908C471.401 88.3865 469.837 87.9844 468.095 87.9844C466.352 87.9844 464.788 88.3865 463.403 89.1908C462.018 89.9951 460.901 91.1345 460.052 92.609C459.248 94.0835 458.846 95.8707 458.846 97.9708C458.846 100.026 459.248 101.813 460.052 103.333C460.901 104.807 462.018 105.947 463.403 106.751C464.788 107.555 466.352 107.957 468.095 107.957ZM488.823 129.539C487.215 129.539 485.673 129.36 484.199 129.002C482.724 128.69 481.473 128.198 480.445 127.528L483.26 119.954C484.467 120.803 485.941 121.228 487.684 121.228C488.98 121.228 490.007 120.781 490.767 119.887C491.571 119.038 491.973 117.743 491.973 116V79.9416H502.429V115.933C502.429 120.088 501.245 123.395 498.877 125.852C496.509 128.31 493.157 129.539 488.823 129.539ZM497.201 74.9149C495.28 74.9149 493.716 74.3563 492.51 73.2393C491.303 72.1222 490.7 70.7371 490.7 69.0839C490.7 67.4306 491.303 66.0455 492.51 64.9284C493.716 63.8114 495.28 63.2529 497.201 63.2529C499.122 63.2529 500.686 63.789 501.893 64.8614C503.099 65.8891 503.702 67.2296 503.702 68.8828C503.702 70.6254 503.099 72.0776 501.893 73.2393C500.731 74.3563 499.167 74.9149 497.201 74.9149ZM526.131 116.536C522.244 116.536 518.781 115.754 515.742 114.19C512.704 112.582 510.314 110.37 508.571 107.555C506.873 104.74 506.024 101.545 506.024 97.9708C506.024 94.3516 506.873 91.1568 508.571 88.3865C510.314 85.5715 512.704 83.3821 515.742 81.8182C518.781 80.2097 522.244 79.4054 526.131 79.4054C529.929 79.4054 533.235 80.2097 536.05 81.8182C538.865 83.3821 540.943 85.6386 542.284 88.5876L534.174 92.9441C533.235 91.2462 532.051 89.9951 530.622 89.1908C529.236 88.3865 527.717 87.9844 526.064 87.9844C524.277 87.9844 522.668 88.3865 521.238 89.1908C519.809 89.9951 518.669 91.1345 517.82 92.609C517.016 94.0835 516.614 95.8707 516.614 97.9708C516.614 100.071 517.016 101.858 517.82 103.333C518.669 104.807 519.809 105.947 521.238 106.751C522.668 107.555 524.277 107.957 526.064 107.957C527.717 107.957 529.236 107.577 530.622 106.818C532.051 106.014 533.235 104.74 534.174 102.998L542.284 107.421C540.943 110.325 538.865 112.582 536.05 114.19C533.235 115.754 529.929 116.536 526.131 116.536ZM520.233 75.317L511.386 65.6657H519.027L528.276 73.6414H521.439L530.689 65.6657H538.329L529.482 75.317H520.233ZM544.756 116V79.9416H555.212V116H544.756ZM549.984 74.9149C548.063 74.9149 546.499 74.3563 545.292 73.2393C544.086 72.1222 543.483 70.7371 543.483 69.0839C543.483 67.4306 544.086 66.0455 545.292 64.9284C546.499 63.8114 548.063 63.2529 549.984 63.2529C551.905 63.2529 553.469 63.789 554.675 64.8614C555.882 65.8891 556.485 67.2296 556.485 68.8828C556.485 70.6254 555.882 72.0776 554.675 73.2393C553.514 74.3563 551.95 74.9149 549.984 74.9149ZM578.99 116.536C575.103 116.536 571.64 115.754 568.602 114.19C565.563 112.582 563.173 110.37 561.43 107.555C559.732 104.74 558.883 101.545 558.883 97.9708C558.883 94.3516 559.732 91.1568 561.43 88.3865C563.173 85.5715 565.563 83.3821 568.602 81.8182C571.64 80.2097 575.103 79.4054 578.99 79.4054C582.788 79.4054 586.095 80.2097 588.91 81.8182C591.725 83.3821 593.802 85.6386 595.143 88.5876L587.033 92.9441C586.095 91.2462 584.911 89.9951 583.481 89.1908C582.096 88.3865 580.576 87.9844 578.923 87.9844C577.136 87.9844 575.527 88.3865 574.097 89.1908C572.668 89.9951 571.528 91.1345 570.679 92.609C569.875 94.0835 569.473 95.8707 569.473 97.9708C569.473 100.071 569.875 101.858 570.679 103.333C571.528 104.807 572.668 105.947 574.097 106.751C575.527 107.555 577.136 107.957 578.923 107.957C580.576 107.957 582.096 107.577 583.481 106.818C584.911 106.014 586.095 104.74 587.033 102.998L595.143 107.421C593.802 110.325 591.725 112.582 588.91 114.19C586.095 115.754 582.788 116.536 578.99 116.536ZM619.929 116V108.963L619.259 107.421V94.8207C619.259 92.5866 618.566 90.844 617.181 89.5929C615.841 88.3418 613.763 87.7163 610.948 87.7163C609.027 87.7163 607.128 88.029 605.251 88.6546C603.419 89.2355 601.855 90.0397 600.56 91.0674L596.806 83.7619C598.772 82.3768 601.14 81.3044 603.911 80.5448C606.681 79.7852 609.496 79.4054 612.356 79.4054C617.852 79.4054 622.119 80.7012 625.157 83.2928C628.195 85.8843 629.715 89.928 629.715 95.4239V116H619.929ZM608.937 116.536C606.122 116.536 603.71 116.067 601.699 115.129C599.688 114.146 598.147 112.828 597.074 111.174C596.002 109.521 595.466 107.667 595.466 105.611C595.466 103.467 595.98 101.59 597.007 99.9815C598.08 98.3729 599.755 97.1218 602.034 96.2282C604.313 95.2899 607.284 94.8207 610.948 94.8207H620.532V100.92H612.088C609.63 100.92 607.932 101.322 606.994 102.126C606.1 102.931 605.653 103.936 605.653 105.142C605.653 106.483 606.167 107.555 607.195 108.359C608.267 109.119 609.719 109.499 611.551 109.499C613.294 109.499 614.858 109.097 616.243 108.292C617.628 107.443 618.633 106.215 619.259 104.606L620.868 109.432C620.108 111.755 618.723 113.52 616.712 114.727C614.701 115.933 612.11 116.536 608.937 116.536Z" fill="white"/>
</svg>
